<svg xmlns="http://www.w3.org/2000/svg" xmlns:xlink="http://www.w3.org/1999/xlink" width="1920" zoomAndPan="magnify" viewBox="0 0 1440 359.999987" height="480" preserveAspectRatio="xMidYMid meet" version="1.0"><defs><filter x="0%" y="0%" width="100%" height="100%" id="8b44ffdd3e"><feColorMatrix values="0 0 0 0 1 0 0 0 0 1 0 0 0 0 1 0 0 0 1 0" color-interpolation-filters="sRGB"/></filter><mask id="26ffa85f0d"><g filter="url(#8b44ffdd3e)"><rect x="-144" width="1728" fill="#000000" y="-35.999999" height="431.999984" fill-opacity="0.3"/></g></mask><clipPath id="614b425ad2"><path d="M 0.960938 0.71875 L 915.359375 0.71875 L 915.359375 96 L 0.960938 96 Z M 0.960938 0.71875 " clip-rule="nonzero"/></clipPath><clipPath id="9472b35e9d"><path d="M 1 29 L 191 29 L 191 96 L 1 96 Z M 1 29 " clip-rule="nonzero"/></clipPath><clipPath id="ab9898a9d2"><path d="M 41.535156 0.941406 L 230.992188 58.660156 L 190.621094 191.175781 L 1.164062 133.457031 Z M 41.535156 0.941406 " clip-rule="nonzero"/></clipPath><clipPath id="6c48883b49"><path d="M 136.070312 29.742188 L 190.234375 191.058594 L 1.164062 133.457031 Z M 136.070312 29.742188 " clip-rule="nonzero"/></clipPath><clipPath id="0fcba3d25b"><path d="M 0 0.519531 L 189.320312 0.519531 L 189.320312 67 L 0 67 Z M 0 0.519531 " clip-rule="nonzero"/></clipPath><clipPath id="1b7216d8a4"><path d="M 40.535156 -28.058594 L 229.992188 29.660156 L 189.621094 162.175781 L 0.164062 104.457031 Z M 40.535156 -28.058594 " clip-rule="nonzero"/></clipPath><clipPath id="ef7d73aae0"><path d="M 135.070312 0.742188 L 189.234375 162.058594 L 0.164062 104.457031 Z M 135.070312 0.742188 " clip-rule="nonzero"/></clipPath><clipPath id="4a09de5564"><rect x="0" width="190" y="0" height="67"/></clipPath><clipPath id="4e862ff9cc"><path d="M 101 29 L 291 29 L 291 96 L 101 96 Z M 101 29 " clip-rule="nonzero"/></clipPath><clipPath id="1e0f089f95"><path d="M 142.226562 0.941406 L 331.683594 58.660156 L 291.3125 191.175781 L 101.855469 133.457031 Z M 142.226562 0.941406 " clip-rule="nonzero"/></clipPath><clipPath id="2f63ecb814"><path d="M 236.761719 29.742188 L 290.925781 191.058594 L 101.855469 133.457031 Z M 236.761719 29.742188 " clip-rule="nonzero"/></clipPath><clipPath id="4a86372f72"><path d="M 0.761719 0.519531 L 190 0.519531 L 190 67 L 0.761719 67 Z M 0.761719 0.519531 " clip-rule="nonzero"/></clipPath><clipPath id="9fea364944"><path d="M 41.226562 -28.058594 L 230.683594 29.660156 L 190.3125 162.175781 L 0.855469 104.457031 Z M 41.226562 -28.058594 " clip-rule="nonzero"/></clipPath><clipPath id="2f54d509cf"><path d="M 135.761719 0.742188 L 189.925781 162.058594 L 0.855469 104.457031 Z M 135.761719 0.742188 " clip-rule="nonzero"/></clipPath><clipPath id="439534552a"><rect x="0" width="190" y="0" height="67"/></clipPath><clipPath id="717aa73667"><path d="M 584 29 L 774 29 L 774 96 L 584 96 Z M 584 29 " clip-rule="nonzero"/></clipPath><clipPath id="7d56a8c1e8"><path d="M 625.160156 0.941406 L 814.617188 58.660156 L 774.246094 191.175781 L 584.789062 133.457031 Z M 625.160156 0.941406 " clip-rule="nonzero"/></clipPath><clipPath id="00af000f62"><path d="M 719.695312 29.742188 L 773.859375 191.058594 L 584.789062 133.457031 Z M 719.695312 29.742188 " clip-rule="nonzero"/></clipPath><clipPath id="00e1e5ade1"><path d="M 0.640625 0.519531 L 190 0.519531 L 190 67 L 0.640625 67 Z M 0.640625 0.519531 " clip-rule="nonzero"/></clipPath><clipPath id="3809f20882"><path d="M 41.160156 -28.058594 L 230.617188 29.660156 L 190.246094 162.175781 L 0.789062 104.457031 Z M 41.160156 -28.058594 " clip-rule="nonzero"/></clipPath><clipPath id="7b16b9e43c"><path d="M 135.695312 0.742188 L 189.859375 162.058594 L 0.789062 104.457031 Z M 135.695312 0.742188 " clip-rule="nonzero"/></clipPath><clipPath id="17a9c83315"><rect x="0" width="190" y="0" height="67"/></clipPath><clipPath id="a501781814"><path d="M 685 29 L 875 29 L 875 96 L 685 96 Z M 685 29 " clip-rule="nonzero"/></clipPath><clipPath id="1d67fe2c49"><path d="M 725.851562 0.941406 L 915.308594 58.660156 L 874.9375 191.175781 L 685.480469 133.457031 Z M 725.851562 0.941406 " clip-rule="nonzero"/></clipPath><clipPath id="17a5fc59b9"><path d="M 820.382812 29.742188 L 874.550781 191.058594 L 685.480469 133.457031 Z M 820.382812 29.742188 " clip-rule="nonzero"/></clipPath><clipPath id="8a58806095"><path d="M 0.441406 0.519531 L 189.558594 0.519531 L 189.558594 67 L 0.441406 67 Z M 0.441406 0.519531 " clip-rule="nonzero"/></clipPath><clipPath id="661e1e92d7"><path d="M 40.851562 -28.058594 L 230.308594 29.660156 L 189.9375 162.175781 L 0.480469 104.457031 Z M 40.851562 -28.058594 " clip-rule="nonzero"/></clipPath><clipPath id="c2b7b93415"><path d="M 135.382812 0.742188 L 189.550781 162.058594 L 0.480469 104.457031 Z M 135.382812 0.742188 " clip-rule="nonzero"/></clipPath><clipPath id="9f3cd874a6"><rect x="0" width="190" y="0" height="67"/></clipPath><clipPath id="522bcbb4b5"><path d="M 311 29 L 501 29 L 501 96 L 311 96 Z M 311 29 " clip-rule="nonzero"/></clipPath><clipPath id="9b791dff78"><path d="M 351.503906 0.941406 L 540.960938 58.660156 L 500.59375 191.175781 L 311.132812 133.457031 Z M 351.503906 0.941406 " clip-rule="nonzero"/></clipPath><clipPath id="4984ce9ae5"><path d="M 446.039062 29.742188 L 500.203125 191.058594 L 311.132812 133.457031 Z M 446.039062 29.742188 " clip-rule="nonzero"/></clipPath><clipPath id="61d6c9efbe"><path d="M 0.0390625 0.519531 L 189.398438 0.519531 L 189.398438 67 L 0.0390625 67 Z M 0.0390625 0.519531 " clip-rule="nonzero"/></clipPath><clipPath id="67b3e7bf8d"><path d="M 40.503906 -28.058594 L 229.960938 29.660156 L 189.59375 162.175781 L 0.132812 104.457031 Z M 40.503906 -28.058594 " clip-rule="nonzero"/></clipPath><clipPath id="8dda64bb8c"><path d="M 135.039062 0.742188 L 189.203125 162.058594 L 0.132812 104.457031 Z M 135.039062 0.742188 " clip-rule="nonzero"/></clipPath><clipPath id="6e41b61176"><rect x="0" width="190" y="0" height="67"/></clipPath><clipPath id="0e93bb1e5c"><path d="M 502 29 L 692 29 L 692 96 L 502 96 Z M 502 29 " clip-rule="nonzero"/></clipPath><clipPath id="1867d7446e"><path d="M 542.75 0.941406 L 732.210938 58.660156 L 691.839844 191.175781 L 502.382812 133.457031 Z M 542.75 0.941406 " clip-rule="nonzero"/></clipPath><clipPath id="90f0bdc2a2"><path d="M 637.285156 29.742188 L 691.453125 191.058594 L 502.382812 133.457031 Z M 637.285156 29.742188 " clip-rule="nonzero"/></clipPath><clipPath id="a5eb35ea06"><path d="M 0.320312 0.519531 L 189.679688 0.519531 L 189.679688 67 L 0.320312 67 Z M 0.320312 0.519531 " clip-rule="nonzero"/></clipPath><clipPath id="5e62b2e6d1"><path d="M 40.75 -28.058594 L 230.210938 29.660156 L 189.839844 162.175781 L 0.382812 104.457031 Z M 40.75 -28.058594 " clip-rule="nonzero"/></clipPath><clipPath id="cf288d049d"><path d="M 135.285156 0.742188 L 189.453125 162.058594 L 0.382812 104.457031 Z M 135.285156 0.742188 " clip-rule="nonzero"/></clipPath><clipPath id="8acd9cb08e"><rect x="0" width="190" y="0" height="67"/></clipPath><clipPath id="a1bdd7e92b"><path d="M 216 29 L 406 29 L 406 96 L 216 96 Z M 216 29 " clip-rule="nonzero"/></clipPath><clipPath id="46624eacfe"><path d="M 256.945312 0.941406 L 446.402344 58.660156 L 406.03125 191.175781 L 216.574219 133.457031 Z M 256.945312 0.941406 " clip-rule="nonzero"/></clipPath><clipPath id="e7b3fdcc1e"><path d="M 351.480469 29.742188 L 405.644531 191.058594 L 216.574219 133.457031 Z M 351.480469 29.742188 " clip-rule="nonzero"/></clipPath><clipPath id="cff3a366a0"><path d="M 0.480469 0.519531 L 189.839844 0.519531 L 189.839844 67 L 0.480469 67 Z M 0.480469 0.519531 " clip-rule="nonzero"/></clipPath><clipPath id="34863d9230"><path d="M 40.945312 -28.058594 L 230.402344 29.660156 L 190.03125 162.175781 L 0.574219 104.457031 Z M 40.945312 -28.058594 " clip-rule="nonzero"/></clipPath><clipPath id="72ca4b076e"><path d="M 135.480469 0.742188 L 189.644531 162.058594 L 0.574219 104.457031 Z M 135.480469 0.742188 " clip-rule="nonzero"/></clipPath><clipPath id="657088a0c2"><rect x="0" width="190" y="0" height="67"/></clipPath><clipPath id="5076cf5393"><path d="M 410 29 L 600 29 L 600 96 L 410 96 Z M 410 29 " clip-rule="nonzero"/></clipPath><clipPath id="edf568fadf"><path d="M 450.613281 0.941406 L 640.070312 58.660156 L 599.699219 191.175781 L 410.242188 133.457031 Z M 450.613281 0.941406 " clip-rule="nonzero"/></clipPath><clipPath id="b0c1ad9fb2"><path d="M 545.148438 29.742188 L 599.3125 191.058594 L 410.242188 133.457031 Z M 545.148438 29.742188 " clip-rule="nonzero"/></clipPath><clipPath id="1b86038c10"><path d="M 0.160156 0.519531 L 189.519531 0.519531 L 189.519531 67 L 0.160156 67 Z M 0.160156 0.519531 " clip-rule="nonzero"/></clipPath><clipPath id="028766e458"><path d="M 40.613281 -28.058594 L 230.070312 29.660156 L 189.699219 162.175781 L 0.242188 104.457031 Z M 40.613281 -28.058594 " clip-rule="nonzero"/></clipPath><clipPath id="f1ab886e69"><path d="M 135.148438 0.742188 L 189.3125 162.058594 L 0.242188 104.457031 Z M 135.148438 0.742188 " clip-rule="nonzero"/></clipPath><clipPath id="3b7cad3a07"><rect x="0" width="190" y="0" height="67"/></clipPath><clipPath id="0b1b0d4dda"><rect x="0" width="916" y="0" height="96"/></clipPath><clipPath id="cdd6807b9a"><rect x="0" width="916" y="0" height="96"/></clipPath><mask id="0db455303a"><g filter="url(#8b44ffdd3e)"><rect x="-144" width="1728" fill="#000000" y="-35.999999" height="431.999984" fill-opacity="0.3"/></g></mask><clipPath id="7bf8d00ef7"><path d="M 0 0.71875 L 409.199219 0.71875 L 409.199219 96 L 0 96 Z M 0 0.71875 " clip-rule="nonzero"/></clipPath><clipPath id="ccf8e16ca5"><path d="M 78 29 L 268 29 L 268 96 L 78 96 Z M 78 29 " clip-rule="nonzero"/></clipPath><clipPath id="230f49e48a"><path d="M 118.949219 0.941406 L 308.40625 58.660156 L 268.035156 191.175781 L 78.578125 133.457031 Z M 118.949219 0.941406 " clip-rule="nonzero"/></clipPath><clipPath id="5d0592f6e5"><path d="M 213.484375 29.742188 L 267.648438 191.058594 L 78.578125 133.457031 Z M 213.484375 29.742188 " clip-rule="nonzero"/></clipPath><clipPath id="8f35436406"><path d="M 0.480469 0.519531 L 189.839844 0.519531 L 189.839844 67 L 0.480469 67 Z M 0.480469 0.519531 " clip-rule="nonzero"/></clipPath><clipPath id="e8745f6223"><path d="M 40.949219 -28.058594 L 230.40625 29.660156 L 190.035156 162.175781 L 0.578125 104.457031 Z M 40.949219 -28.058594 " clip-rule="nonzero"/></clipPath><clipPath id="8f1adccb8a"><path d="M 135.484375 0.742188 L 189.648438 162.058594 L 0.578125 104.457031 Z M 135.484375 0.742188 " clip-rule="nonzero"/></clipPath><clipPath id="a2080fefb7"><rect x="0" width="190" y="0" height="67"/></clipPath><clipPath id="9240b538cd"><path d="M 179 29 L 369 29 L 369 96 L 179 96 Z M 179 29 " clip-rule="nonzero"/></clipPath><clipPath id="809c9d0daa"><path d="M 219.636719 0.941406 L 409.09375 58.660156 L 368.726562 191.175781 L 179.269531 133.457031 Z M 219.636719 0.941406 " clip-rule="nonzero"/></clipPath><clipPath id="1e2f316652"><path d="M 314.171875 29.742188 L 368.335938 191.058594 L 179.269531 133.457031 Z M 314.171875 29.742188 " clip-rule="nonzero"/></clipPath><clipPath id="7eec4c60c7"><path d="M 0.0390625 0.519531 L 189.398438 0.519531 L 189.398438 67 L 0.0390625 67 Z M 0.0390625 0.519531 " clip-rule="nonzero"/></clipPath><clipPath id="bf7ce2d8a8"><path d="M 40.636719 -28.058594 L 230.09375 29.660156 L 189.726562 162.175781 L 0.269531 104.457031 Z M 40.636719 -28.058594 " clip-rule="nonzero"/></clipPath><clipPath id="67202567dc"><path d="M 135.171875 0.742188 L 189.335938 162.058594 L 0.269531 104.457031 Z M 135.171875 0.742188 " clip-rule="nonzero"/></clipPath><clipPath id="eaecb57d1a"><rect x="0" width="190" y="0" height="67"/></clipPath><clipPath id="089c6f6ae3"><path d="M 0 29 L 186 29 L 186 96 L 0 96 Z M 0 29 " clip-rule="nonzero"/></clipPath><clipPath id="8e104f5513"><path d="M 36.539062 0.941406 L 225.996094 58.660156 L 185.628906 191.175781 L -3.828125 133.457031 Z M 36.539062 0.941406 " clip-rule="nonzero"/></clipPath><clipPath id="aff943f9ea"><path d="M 131.074219 29.742188 L 185.238281 191.058594 L -3.828125 133.457031 Z M 131.074219 29.742188 " clip-rule="nonzero"/></clipPath><clipPath id="74d264a6bd"><path d="M 0 0.519531 L 185.28125 0.519531 L 185.28125 67 L 0 67 Z M 0 0.519531 " clip-rule="nonzero"/></clipPath><clipPath id="a4f42c354a"><path d="M 36.539062 -28.058594 L 225.996094 29.660156 L 185.628906 162.175781 L -3.828125 104.457031 Z M 36.539062 -28.058594 " clip-rule="nonzero"/></clipPath><clipPath id="693cb4048b"><path d="M 131.074219 0.742188 L 185.238281 162.058594 L -3.828125 104.457031 Z M 131.074219 0.742188 " clip-rule="nonzero"/></clipPath><clipPath id="403e840c8a"><rect x="0" width="186" y="0" height="67"/></clipPath><clipPath id="23e42907ba"><path d="M 0 29 L 94 29 L 94 96 L 0 96 Z M 0 29 " clip-rule="nonzero"/></clipPath><clipPath id="3f0f0ba6cc"><path d="M -55.597656 0.941406 L 133.859375 58.660156 L 93.488281 191.175781 L -95.96875 133.457031 Z M -55.597656 0.941406 " clip-rule="nonzero"/></clipPath><clipPath id="f27e1b58cb"><path d="M 38.9375 29.742188 L 93.101562 191.058594 L -95.96875 133.457031 Z M 38.9375 29.742188 " clip-rule="nonzero"/></clipPath><clipPath id="5ca5ef157c"><path d="M 0 0.519531 L 93.121094 0.519531 L 93.121094 67 L 0 67 Z M 0 0.519531 " clip-rule="nonzero"/></clipPath><clipPath id="d0e72d6c3e"><path d="M -55.597656 -28.058594 L 133.859375 29.660156 L 93.488281 162.175781 L -95.96875 104.457031 Z M -55.597656 -28.058594 " clip-rule="nonzero"/></clipPath><clipPath id="01b0323bc2"><path d="M 38.9375 0.742188 L 93.101562 162.058594 L -95.96875 104.457031 Z M 38.9375 0.742188 " clip-rule="nonzero"/></clipPath><clipPath id="f0fa5fa1a2"><rect x="0" width="94" y="0" height="67"/></clipPath><clipPath id="a68490b60a"><rect x="0" width="410" y="0" height="96"/></clipPath><clipPath id="6f925f3fe4"><rect x="0" width="410" y="0" height="96"/></clipPath><mask id="adf789fb5b"><g filter="url(#8b44ffdd3e)"><rect x="-144" width="1728" fill="#000000" y="-35.999999" height="431.999984" fill-opacity="0.3"/></g></mask><clipPath id="2e8f57f356"><path d="M 0.398438 0.71875 L 358 0.71875 L 358 96 L 0.398438 96 Z M 0.398438 0.71875 " clip-rule="nonzero"/></clipPath><clipPath id="10f020a851"><path d="M 0.398438 29 L 190 29 L 190 96 L 0.398438 96 Z M 0.398438 29 " clip-rule="nonzero"/></clipPath><clipPath id="bcfca9a3af"><path d="M 40.839844 0.941406 L 230.296875 58.660156 L 189.929688 191.175781 L 0.472656 133.457031 Z M 40.839844 0.941406 " clip-rule="nonzero"/></clipPath><clipPath id="1deae0025b"><path d="M 135.375 29.742188 L 189.539062 191.058594 L 0.472656 133.457031 Z M 135.375 29.742188 " clip-rule="nonzero"/></clipPath><clipPath id="d79c094365"><path d="M 0.398438 0.519531 L 189.761719 0.519531 L 189.761719 67 L 0.398438 67 Z M 0.398438 0.519531 " clip-rule="nonzero"/></clipPath><clipPath id="a5bf54122e"><path d="M 40.839844 -28.058594 L 230.296875 29.660156 L 189.929688 162.175781 L 0.472656 104.457031 Z M 40.839844 -28.058594 " clip-rule="nonzero"/></clipPath><clipPath id="6daefdb697"><path d="M 135.375 0.742188 L 189.539062 162.058594 L 0.472656 104.457031 Z M 135.375 0.742188 " clip-rule="nonzero"/></clipPath><clipPath id="aea61dfdfd"><rect x="0" width="190" y="0" height="67"/></clipPath><clipPath id="686b3f4b01"><path d="M 101 29 L 291 29 L 291 96 L 101 96 Z M 101 29 " clip-rule="nonzero"/></clipPath><clipPath id="da8afb5e86"><path d="M 141.53125 0.941406 L 330.988281 58.660156 L 290.617188 191.175781 L 101.160156 133.457031 Z M 141.53125 0.941406 " clip-rule="nonzero"/></clipPath><clipPath id="8af1b752f2"><path d="M 236.066406 29.742188 L 290.230469 191.058594 L 101.160156 133.457031 Z M 236.066406 29.742188 " clip-rule="nonzero"/></clipPath><clipPath id="32af8a9ff2"><path d="M 0 0.519531 L 189.320312 0.519531 L 189.320312 67 L 0 67 Z M 0 0.519531 " clip-rule="nonzero"/></clipPath><clipPath id="39d5268b6b"><path d="M 40.53125 -28.058594 L 229.988281 29.660156 L 189.617188 162.175781 L 0.160156 104.457031 Z M 40.53125 -28.058594 " clip-rule="nonzero"/></clipPath><clipPath id="ac92aacc5c"><path d="M 135.066406 0.742188 L 189.230469 162.058594 L 0.160156 104.457031 Z M 135.066406 0.742188 " clip-rule="nonzero"/></clipPath><clipPath id="4365832151"><rect x="0" width="190" y="0" height="67"/></clipPath><clipPath id="249bbd6f22"><path d="M 310 29 L 358 29 L 358 96 L 310 96 Z M 310 29 " clip-rule="nonzero"/></clipPath><clipPath id="136fe3b06a"><path d="M 350.808594 0.941406 L 540.269531 58.660156 L 499.898438 191.175781 L 310.441406 133.457031 Z M 350.808594 0.941406 " clip-rule="nonzero"/></clipPath><clipPath id="f69fc09d46"><path d="M 445.34375 29.742188 L 499.511719 191.058594 L 310.441406 133.457031 Z M 445.34375 29.742188 " clip-rule="nonzero"/></clipPath><clipPath id="2e03d20fe6"><path d="M 0.238281 0.519531 L 48 0.519531 L 48 67 L 0.238281 67 Z M 0.238281 0.519531 " clip-rule="nonzero"/></clipPath><clipPath id="de4f372ee9"><path d="M 40.808594 -28.058594 L 230.269531 29.660156 L 189.898438 162.175781 L 0.441406 104.457031 Z M 40.808594 -28.058594 " clip-rule="nonzero"/></clipPath><clipPath id="43ff1a6b45"><path d="M 135.34375 0.742188 L 189.511719 162.058594 L 0.441406 104.457031 Z M 135.34375 0.742188 " clip-rule="nonzero"/></clipPath><clipPath id="dbc839368d"><rect x="0" width="48" y="0" height="67"/></clipPath><clipPath id="69c7675800"><path d="M 215 29 L 358 29 L 358 96 L 215 96 Z M 215 29 " clip-rule="nonzero"/></clipPath><clipPath id="db69629926"><path d="M 256.25 0.941406 L 445.707031 58.660156 L 405.335938 191.175781 L 215.878906 133.457031 Z M 256.25 0.941406 " clip-rule="nonzero"/></clipPath><clipPath id="b944f66792"><path d="M 350.785156 29.742188 L 404.949219 191.058594 L 215.878906 133.457031 Z M 350.785156 29.742188 " clip-rule="nonzero"/></clipPath><clipPath id="b0812bb66f"><path d="M 0.679688 0.519531 L 143 0.519531 L 143 67 L 0.679688 67 Z M 0.679688 0.519531 " clip-rule="nonzero"/></clipPath><clipPath id="57399adc3e"><path d="M 41.25 -28.058594 L 230.707031 29.660156 L 190.335938 162.175781 L 0.878906 104.457031 Z M 41.25 -28.058594 " clip-rule="nonzero"/></clipPath><clipPath id="c82425806b"><path d="M 135.785156 0.742188 L 189.949219 162.058594 L 0.878906 104.457031 Z M 135.785156 0.742188 " clip-rule="nonzero"/></clipPath><clipPath id="4852c332d2"><rect x="0" width="143" y="0" height="67"/></clipPath><clipPath id="52d694b45d"><rect x="0" width="358" y="0" height="96"/></clipPath><clipPath id="ee21054fa6"><rect x="0" width="358" y="0" height="96"/></clipPath><mask id="55dbddce3b"><g filter="url(#8b44ffdd3e)"><rect x="-144" width="1728" fill="#000000" y="-35.999999" height="431.999984" fill-opacity="0.3"/></g></mask><clipPath id="a63cb783a5"><path d="M 0.960938 0 L 915.121094 0 L 915.121094 95.28125 L 0.960938 95.28125 Z M 0.960938 0 " clip-rule="nonzero"/></clipPath><clipPath id="26fcd88d6a"><path d="M 726 0 L 915.121094 0 L 915.121094 67 L 726 67 Z M 726 0 " clip-rule="nonzero"/></clipPath><clipPath id="5134238b5f"><path d="M 874.75 95.054688 L 685.289062 37.339844 L 725.660156 -95.179688 L 915.117188 -37.460938 Z M 874.75 95.054688 " clip-rule="nonzero"/></clipPath><clipPath id="a634e06dc2"><path d="M 780.214844 66.257812 L 726.050781 -95.058594 L 915.117188 -37.460938 Z M 780.214844 66.257812 " clip-rule="nonzero"/></clipPath><clipPath id="ffcb45cb93"><path d="M 0 0 L 189.121094 0 L 189.121094 66.480469 L 0 66.480469 Z M 0 0 " clip-rule="nonzero"/></clipPath><clipPath id="a9f787bec6"><path d="M 148.75 95.054688 L -40.710938 37.339844 L -0.339844 -95.179688 L 189.117188 -37.460938 Z M 148.75 95.054688 " clip-rule="nonzero"/></clipPath><clipPath id="ea404de14f"><path d="M 54.214844 66.257812 L 0.0507812 -95.058594 L 189.117188 -37.460938 Z M 54.214844 66.257812 " clip-rule="nonzero"/></clipPath><clipPath id="98ad3fa748"><rect x="0" width="190" y="0" height="67"/></clipPath><clipPath id="698faea14b"><path d="M 625 0 L 815 0 L 815 67 L 625 67 Z M 625 0 " clip-rule="nonzero"/></clipPath><clipPath id="3b5f36c921"><path d="M 774.058594 95.054688 L 584.601562 37.339844 L 624.972656 -95.179688 L 814.429688 -37.460938 Z M 774.058594 95.054688 " clip-rule="nonzero"/></clipPath><clipPath id="36311dd08f"><path d="M 679.523438 66.257812 L 625.359375 -95.058594 L 814.429688 -37.460938 Z M 679.523438 66.257812 " clip-rule="nonzero"/></clipPath><clipPath id="867d00386c"><path d="M 0.199219 0 L 189.558594 0 L 189.558594 66.480469 L 0.199219 66.480469 Z M 0.199219 0 " clip-rule="nonzero"/></clipPath><clipPath id="34ce062c02"><path d="M 149.058594 95.054688 L -40.398438 37.339844 L -0.0273438 -95.179688 L 189.429688 -37.460938 Z M 149.058594 95.054688 " clip-rule="nonzero"/></clipPath><clipPath id="cacb683138"><path d="M 54.523438 66.257812 L 0.359375 -95.058594 L 189.429688 -37.460938 Z M 54.523438 66.257812 " clip-rule="nonzero"/></clipPath><clipPath id="63fff263b8"><rect x="0" width="190" y="0" height="67"/></clipPath><clipPath id="3a56677976"><path d="M 142 0 L 332 0 L 332 67 L 142 67 Z M 142 0 " clip-rule="nonzero"/></clipPath><clipPath id="11cbc442ef"><path d="M 291.125 95.054688 L 101.667969 37.339844 L 142.035156 -95.179688 L 331.492188 -37.460938 Z M 291.125 95.054688 " clip-rule="nonzero"/></clipPath><clipPath id="09b1a41119"><path d="M 196.589844 66.257812 L 142.425781 -95.058594 L 331.492188 -37.460938 Z M 196.589844 66.257812 " clip-rule="nonzero"/></clipPath><clipPath id="a60da4cf77"><path d="M 0.320312 0 L 189.679688 0 L 189.679688 66.480469 L 0.320312 66.480469 Z M 0.320312 0 " clip-rule="nonzero"/></clipPath><clipPath id="5c05959d96"><path d="M 149.125 95.054688 L -40.332031 37.339844 L 0.0351562 -95.179688 L 189.492188 -37.460938 Z M 149.125 95.054688 " clip-rule="nonzero"/></clipPath><clipPath id="2ccbbf1915"><path d="M 54.589844 66.257812 L 0.425781 -95.058594 L 189.492188 -37.460938 Z M 54.589844 66.257812 " clip-rule="nonzero"/></clipPath><clipPath id="d752abda65"><rect x="0" width="190" y="0" height="67"/></clipPath><clipPath id="b068588d2e"><path d="M 41 0 L 231 0 L 231 67 L 41 67 Z M 41 0 " clip-rule="nonzero"/></clipPath><clipPath id="ec468bf691"><path d="M 190.433594 95.054688 L 0.976562 37.339844 L 41.347656 -95.179688 L 230.804688 -37.460938 Z M 190.433594 95.054688 " clip-rule="nonzero"/></clipPath><clipPath id="69b88c649e"><path d="M 95.898438 66.257812 L 41.734375 -95.058594 L 230.804688 -37.460938 Z M 95.898438 66.257812 " clip-rule="nonzero"/></clipPath><clipPath id="94e15cd0f1"><path d="M 0.519531 0 L 189.878906 0 L 189.878906 66.480469 L 0.519531 66.480469 Z M 0.519531 0 " clip-rule="nonzero"/></clipPath><clipPath id="d470efd911"><path d="M 149.433594 95.054688 L -40.023438 37.339844 L 0.347656 -95.179688 L 189.804688 -37.460938 Z M 149.433594 95.054688 " clip-rule="nonzero"/></clipPath><clipPath id="82fdefd801"><path d="M 54.898438 66.257812 L 0.734375 -95.058594 L 189.804688 -37.460938 Z M 54.898438 66.257812 " clip-rule="nonzero"/></clipPath><clipPath id="aad3607ade"><rect x="0" width="190" y="0" height="67"/></clipPath><clipPath id="2828e633db"><path d="M 416 0 L 606 0 L 606 67 L 416 67 Z M 416 0 " clip-rule="nonzero"/></clipPath><clipPath id="efeb97ea65"><path d="M 564.777344 95.054688 L 375.320312 37.339844 L 415.691406 -95.179688 L 605.148438 -37.460938 Z M 564.777344 95.054688 " clip-rule="nonzero"/></clipPath><clipPath id="b2dfec48fe"><path d="M 470.242188 66.257812 L 416.078125 -95.058594 L 605.148438 -37.460938 Z M 470.242188 66.257812 " clip-rule="nonzero"/></clipPath><clipPath id="542e762582"><path d="M 0 0 L 189.28125 0 L 189.28125 66.480469 L 0 66.480469 Z M 0 0 " clip-rule="nonzero"/></clipPath><clipPath id="a88c0da437"><path d="M 148.777344 95.054688 L -40.679688 37.339844 L -0.308594 -95.179688 L 189.148438 -37.460938 Z M 148.777344 95.054688 " clip-rule="nonzero"/></clipPath><clipPath id="60462f7f4f"><path d="M 54.242188 66.257812 L 0.078125 -95.058594 L 189.148438 -37.460938 Z M 54.242188 66.257812 " clip-rule="nonzero"/></clipPath><clipPath id="af1ced7deb"><rect x="0" width="190" y="0" height="67"/></clipPath><clipPath id="b34d393912"><path d="M 224 0 L 414 0 L 414 67 L 224 67 Z M 224 0 " clip-rule="nonzero"/></clipPath><clipPath id="ae9b1f3aed"><path d="M 373.53125 95.054688 L 184.074219 37.339844 L 224.445312 -95.179688 L 413.902344 -37.460938 Z M 373.53125 95.054688 " clip-rule="nonzero"/></clipPath><clipPath id="e7447931f9"><path d="M 278.996094 66.257812 L 224.832031 -95.058594 L 413.902344 -37.460938 Z M 278.996094 66.257812 " clip-rule="nonzero"/></clipPath><clipPath id="c732d7206a"><path d="M 0.640625 0 L 190 0 L 190 66.480469 L 0.640625 66.480469 Z M 0.640625 0 " clip-rule="nonzero"/></clipPath><clipPath id="f040436e5e"><path d="M 149.53125 95.054688 L -39.925781 37.339844 L 0.445312 -95.179688 L 189.902344 -37.460938 Z M 149.53125 95.054688 " clip-rule="nonzero"/></clipPath><clipPath id="0c6024b9fd"><path d="M 54.996094 66.257812 L 0.832031 -95.058594 L 189.902344 -37.460938 Z M 54.996094 66.257812 " clip-rule="nonzero"/></clipPath><clipPath id="07c4e4bf47"><rect x="0" width="190" y="0" height="67"/></clipPath><clipPath id="0b80e5e391"><path d="M 510 0 L 700 0 L 700 67 L 510 67 Z M 510 0 " clip-rule="nonzero"/></clipPath><clipPath id="98790da888"><path d="M 659.339844 95.054688 L 469.882812 37.339844 L 510.25 -95.179688 L 699.710938 -37.460938 Z M 659.339844 95.054688 " clip-rule="nonzero"/></clipPath><clipPath id="70d0c08257"><path d="M 564.804688 66.257812 L 510.640625 -95.058594 L 699.710938 -37.460938 Z M 564.804688 66.257812 " clip-rule="nonzero"/></clipPath><clipPath id="69d18d8557"><path d="M 0.480469 0 L 189.839844 0 L 189.839844 66.480469 L 0.480469 66.480469 Z M 0.480469 0 " clip-rule="nonzero"/></clipPath><clipPath id="9872a8b472"><path d="M 149.339844 95.054688 L -40.117188 37.339844 L 0.25 -95.179688 L 189.710938 -37.460938 Z M 149.339844 95.054688 " clip-rule="nonzero"/></clipPath><clipPath id="76eabc5fad"><path d="M 54.804688 66.257812 L 0.640625 -95.058594 L 189.710938 -37.460938 Z M 54.804688 66.257812 " clip-rule="nonzero"/></clipPath><clipPath id="8ac5fcdb7a"><rect x="0" width="190" y="0" height="67"/></clipPath><clipPath id="a7ae0be336"><path d="M 316 0 L 507 0 L 507 67 L 316 67 Z M 316 0 " clip-rule="nonzero"/></clipPath><clipPath id="553d870daf"><path d="M 465.671875 95.054688 L 276.214844 37.339844 L 316.585938 -95.179688 L 506.042969 -37.460938 Z M 465.671875 95.054688 " clip-rule="nonzero"/></clipPath><clipPath id="4edffcb907"><path d="M 371.136719 66.257812 L 316.972656 -95.058594 L 506.042969 -37.460938 Z M 371.136719 66.257812 " clip-rule="nonzero"/></clipPath><clipPath id="2c95cd2520"><path d="M 0.800781 0 L 190.160156 0 L 190.160156 66.480469 L 0.800781 66.480469 Z M 0.800781 0 " clip-rule="nonzero"/></clipPath><clipPath id="5981328b41"><path d="M 149.671875 95.054688 L -39.785156 37.339844 L 0.585938 -95.179688 L 190.042969 -37.460938 Z M 149.671875 95.054688 " clip-rule="nonzero"/></clipPath><clipPath id="176f7ab07f"><path d="M 55.136719 66.257812 L 0.972656 -95.058594 L 190.042969 -37.460938 Z M 55.136719 66.257812 " clip-rule="nonzero"/></clipPath><clipPath id="e098290323"><rect x="0" width="191" y="0" height="67"/></clipPath><clipPath id="ecf4ad112f"><rect x="0" width="916" y="0" height="96"/></clipPath><clipPath id="020c439e2d"><rect x="0" width="916" y="0" height="96"/></clipPath><mask id="652b243835"><g filter="url(#8b44ffdd3e)"><rect x="-144" width="1728" fill="#000000" y="-35.999999" height="431.999984" fill-opacity="0.3"/></g></mask><clipPath id="87c1d64004"><path d="M 0 0 L 396 0 L 396 95.28125 L 0 95.28125 Z M 0 0 " clip-rule="nonzero"/></clipPath><clipPath id="58e96a9042"><path d="M 206 0 L 396 0 L 396 67 L 206 67 Z M 206 0 " clip-rule="nonzero"/></clipPath><clipPath id="23f666148c"><path d="M 355.621094 95.054688 L 166.164062 37.339844 L 206.535156 -95.179688 L 395.992188 -37.460938 Z M 355.621094 95.054688 " clip-rule="nonzero"/></clipPath><clipPath id="cef4d4f8a8"><path d="M 261.085938 66.257812 L 206.921875 -95.058594 L 395.992188 -37.460938 Z M 261.085938 66.257812 " clip-rule="nonzero"/></clipPath><clipPath id="cd1b51eb36"><path d="M 0.878906 0 L 190 0 L 190 66.480469 L 0.878906 66.480469 Z M 0.878906 0 " clip-rule="nonzero"/></clipPath><clipPath id="7db63cfa74"><path d="M 149.621094 95.054688 L -39.835938 37.339844 L 0.535156 -95.179688 L 189.992188 -37.460938 Z M 149.621094 95.054688 " clip-rule="nonzero"/></clipPath><clipPath id="989f810a91"><path d="M 55.085938 66.257812 L 0.921875 -95.058594 L 189.992188 -37.460938 Z M 55.085938 66.257812 " clip-rule="nonzero"/></clipPath><clipPath id="6b1c6ff8ad"><rect x="0" width="190" y="0" height="67"/></clipPath><clipPath id="9e0abb6c91"><path d="M 106 0 L 296 0 L 296 67 L 106 67 Z M 106 0 " clip-rule="nonzero"/></clipPath><clipPath id="9221eecdf9"><path d="M 254.933594 95.054688 L 65.476562 37.339844 L 105.84375 -95.179688 L 295.300781 -37.460938 Z M 254.933594 95.054688 " clip-rule="nonzero"/></clipPath><clipPath id="e76090f53a"><path d="M 160.398438 66.257812 L 106.234375 -95.058594 L 295.300781 -37.460938 Z M 160.398438 66.257812 " clip-rule="nonzero"/></clipPath><clipPath id="2b29ae22b2"><path d="M 0.078125 0 L 189.441406 0 L 189.441406 66.480469 L 0.078125 66.480469 Z M 0.078125 0 " clip-rule="nonzero"/></clipPath><clipPath id="d7cf771088"><path d="M 148.933594 95.054688 L -40.523438 37.339844 L -0.15625 -95.179688 L 189.300781 -37.460938 Z M 148.933594 95.054688 " clip-rule="nonzero"/></clipPath><clipPath id="91d2de60ff"><path d="M 54.398438 66.257812 L 0.234375 -95.058594 L 189.300781 -37.460938 Z M 54.398438 66.257812 " clip-rule="nonzero"/></clipPath><clipPath id="53eac0f881"><rect x="0" width="190" y="0" height="67"/></clipPath><clipPath id="7b6364c9df"><path d="M 0 0 L 87 0 L 87 67 L 0 67 Z M 0 0 " clip-rule="nonzero"/></clipPath><clipPath id="c2b08d27bb"><path d="M 45.652344 95.054688 L -143.804688 37.339844 L -103.433594 -95.179688 L 86.023438 -37.460938 Z M 45.652344 95.054688 " clip-rule="nonzero"/></clipPath><clipPath id="2768b12729"><path d="M -48.882812 66.257812 L -103.046875 -95.058594 L 86.023438 -37.460938 Z M -48.882812 66.257812 " clip-rule="nonzero"/></clipPath><clipPath id="48334c9be2"><path d="M 0 0 L 86.160156 0 L 86.160156 66.480469 L 0 66.480469 Z M 0 0 " clip-rule="nonzero"/></clipPath><clipPath id="7499b79695"><path d="M 45.652344 95.054688 L -143.804688 37.339844 L -103.433594 -95.179688 L 86.023438 -37.460938 Z M 45.652344 95.054688 " clip-rule="nonzero"/></clipPath><clipPath id="1d52767acf"><path d="M -48.882812 66.257812 L -103.046875 -95.058594 L 86.023438 -37.460938 Z M -48.882812 66.257812 " clip-rule="nonzero"/></clipPath><clipPath id="203d7784b3"><rect x="0" width="87" y="0" height="67"/></clipPath><clipPath id="614e38a0be"><path d="M 0 0 L 181 0 L 181 67 L 0 67 Z M 0 0 " clip-rule="nonzero"/></clipPath><clipPath id="d3d2d3fde2"><path d="M 140.210938 95.054688 L -49.246094 37.339844 L -8.875 -95.179688 L 180.582031 -37.460938 Z M 140.210938 95.054688 " clip-rule="nonzero"/></clipPath><clipPath id="8aac97064b"><path d="M 45.675781 66.257812 L -8.488281 -95.058594 L 180.582031 -37.460938 Z M 45.675781 66.257812 " clip-rule="nonzero"/></clipPath><clipPath id="451c228258"><path d="M 0 0 L 180.71875 0 L 180.71875 66.480469 L 0 66.480469 Z M 0 0 " clip-rule="nonzero"/></clipPath><clipPath id="6b7a69abd5"><path d="M 140.210938 95.054688 L -49.246094 37.339844 L -8.875 -95.179688 L 180.582031 -37.460938 Z M 140.210938 95.054688 " clip-rule="nonzero"/></clipPath><clipPath id="f359495a92"><path d="M 45.675781 66.257812 L -8.488281 -95.058594 L 180.582031 -37.460938 Z M 45.675781 66.257812 " clip-rule="nonzero"/></clipPath><clipPath id="71b311c19e"><rect x="0" width="181" y="0" height="67"/></clipPath><clipPath id="07f6f1953d"><rect x="0" width="396" y="0" height="96"/></clipPath><clipPath id="598a9185be"><rect x="0" width="396" y="0" height="96"/></clipPath><mask id="eb5692a9fc"><g filter="url(#8b44ffdd3e)"><rect x="-144" width="1728" fill="#000000" y="-35.999999" height="431.999984" fill-opacity="0.3"/></g></mask><clipPath id="c96821f932"><path d="M 0.921875 0 L 359 0 L 359 95.28125 L 0.921875 95.28125 Z M 0.921875 0 " clip-rule="nonzero"/></clipPath><clipPath id="e091590827"><path d="M 142 0 L 332 0 L 332 67 L 142 67 Z M 142 0 " clip-rule="nonzero"/></clipPath><clipPath id="9042247219"><path d="M 291.222656 95.054688 L 101.765625 37.339844 L 142.136719 -95.179688 L 331.59375 -37.460938 Z M 291.222656 95.054688 " clip-rule="nonzero"/></clipPath><clipPath id="3e6c9bb5da"><path d="M 196.6875 66.257812 L 142.523438 -95.058594 L 331.59375 -37.460938 Z M 196.6875 66.257812 " clip-rule="nonzero"/></clipPath><clipPath id="2a97a3ab95"><path d="M 0.519531 0 L 189.640625 0 L 189.640625 66.480469 L 0.519531 66.480469 Z M 0.519531 0 " clip-rule="nonzero"/></clipPath><clipPath id="e695dcdcb0"><path d="M 149.222656 95.054688 L -40.234375 37.339844 L 0.136719 -95.179688 L 189.59375 -37.460938 Z M 149.222656 95.054688 " clip-rule="nonzero"/></clipPath><clipPath id="def7a63b04"><path d="M 54.6875 66.257812 L 0.523438 -95.058594 L 189.59375 -37.460938 Z M 54.6875 66.257812 " clip-rule="nonzero"/></clipPath><clipPath id="d320c581ee"><rect x="0" width="190" y="0" height="67"/></clipPath><clipPath id="8ea5c80eaf"><path d="M 41 0 L 231 0 L 231 67 L 41 67 Z M 41 0 " clip-rule="nonzero"/></clipPath><clipPath id="47d65ae704"><path d="M 190.53125 95.054688 L 1.074219 37.339844 L 41.445312 -95.179688 L 230.902344 -37.460938 Z M 190.53125 95.054688 " clip-rule="nonzero"/></clipPath><clipPath id="9624d3865d"><path d="M 95.996094 66.257812 L 41.832031 -95.058594 L 230.902344 -37.460938 Z M 95.996094 66.257812 " clip-rule="nonzero"/></clipPath><clipPath id="efec2e12eb"><path d="M 0.71875 0 L 190 0 L 190 66.480469 L 0.71875 66.480469 Z M 0.71875 0 " clip-rule="nonzero"/></clipPath><clipPath id="612bfaff8d"><path d="M 149.53125 95.054688 L -39.925781 37.339844 L 0.445312 -95.179688 L 189.902344 -37.460938 Z M 149.53125 95.054688 " clip-rule="nonzero"/></clipPath><clipPath id="5e7e958dfc"><path d="M 54.996094 66.257812 L 0.832031 -95.058594 L 189.902344 -37.460938 Z M 54.996094 66.257812 " clip-rule="nonzero"/></clipPath><clipPath id="50c52e8fc5"><rect x="0" width="190" y="0" height="67"/></clipPath><clipPath id="3d3d21dba5"><path d="M 224 0 L 359 0 L 359 67 L 224 67 Z M 224 0 " clip-rule="nonzero"/></clipPath><clipPath id="4f3fbdc238"><path d="M 373.628906 95.054688 L 184.171875 37.339844 L 224.542969 -95.179688 L 414 -37.460938 Z M 373.628906 95.054688 " clip-rule="nonzero"/></clipPath><clipPath id="5ef53591de"><path d="M 279.09375 66.257812 L 224.929688 -95.058594 L 414 -37.460938 Z M 279.09375 66.257812 " clip-rule="nonzero"/></clipPath><clipPath id="63e46cc58c"><path d="M 0.839844 0 L 135 0 L 135 66.480469 L 0.839844 66.480469 Z M 0.839844 0 " clip-rule="nonzero"/></clipPath><clipPath id="c067421cb6"><path d="M 149.628906 95.054688 L -39.828125 37.339844 L 0.542969 -95.179688 L 190 -37.460938 Z M 149.628906 95.054688 " clip-rule="nonzero"/></clipPath><clipPath id="30ce02309b"><path d="M 55.09375 66.257812 L 0.929688 -95.058594 L 190 -37.460938 Z M 55.09375 66.257812 " clip-rule="nonzero"/></clipPath><clipPath id="69ddc4bbde"><rect x="0" width="135" y="0" height="67"/></clipPath><clipPath id="f67cb9a907"><path d="M 317 0 L 359 0 L 359 67 L 317 67 Z M 317 0 " clip-rule="nonzero"/></clipPath><clipPath id="5c6b8f2c82"><path d="M 465.769531 95.054688 L 276.3125 37.339844 L 316.683594 -95.179688 L 506.140625 -37.460938 Z M 465.769531 95.054688 " clip-rule="nonzero"/></clipPath><clipPath id="a9d79e8359"><path d="M 371.234375 66.257812 L 317.070312 -95.058594 L 506.140625 -37.460938 Z M 371.234375 66.257812 " clip-rule="nonzero"/></clipPath><clipPath id="8b6da2361a"><path d="M 0 0 L 42 0 L 42 66.480469 L 0 66.480469 Z M 0 0 " clip-rule="nonzero"/></clipPath><clipPath id="5a521e3db2"><path d="M 148.769531 95.054688 L -40.6875 37.339844 L -0.316406 -95.179688 L 189.140625 -37.460938 Z M 148.769531 95.054688 " clip-rule="nonzero"/></clipPath><clipPath id="9ead0f613a"><path d="M 54.234375 66.257812 L 0.0703125 -95.058594 L 189.140625 -37.460938 Z M 54.234375 66.257812 " clip-rule="nonzero"/></clipPath><clipPath id="495775ee7f"><rect x="0" width="42" y="0" height="67"/></clipPath><clipPath id="40e1edbe80"><rect x="0" width="359" y="0" height="96"/></clipPath><clipPath id="4545b0208f"><rect x="0" width="359" y="0" height="96"/></clipPath></defs><rect x="-144" width="1728" fill="#ffffff" y="-35.999999" height="431.999984" fill-opacity="1"/><rect x="-144" width="1728" fill="#1b4332" y="-35.999999" height="431.999984" fill-opacity="1"/><g mask="url(#26ffa85f0d)"><g transform="matrix(1, 0, 0, 1, 288, 264)"><g clip-path="url(#cdd6807b9a)"><g clip-path="url(#614b425ad2)"><g><g clip-path="url(#0b1b0d4dda)"><g clip-path="url(#9472b35e9d)"><g clip-path="url(#ab9898a9d2)"><g clip-path="url(#6c48883b49)"><g transform="matrix(1, 0, 0, 1, 1, 29)"><g clip-path="url(#4a09de5564)"><g clip-path="url(#0fcba3d25b)"><g clip-path="url(#1b7216d8a4)"><g clip-path="url(#ef7d73aae0)"><path fill="#ede6d8" d="M 40.535156 -28.058594 L 229.476562 29.5 L 189.105469 162.019531 L 0.164062 104.457031 Z M 40.535156 -28.058594 " fill-opacity="1" fill-rule="nonzero"/></g></g></g></g></g></g></g></g><g clip-path="url(#4e862ff9cc)"><g clip-path="url(#1e0f089f95)"><g clip-path="url(#2f63ecb814)"><g transform="matrix(1, 0, 0, 1, 101, 29)"><g clip-path="url(#439534552a)"><g clip-path="url(#4a86372f72)"><g clip-path="url(#9fea364944)"><g clip-path="url(#2f54d509cf)"><path fill="#ede6d8" d="M 41.226562 -28.058594 L 230.164062 29.5 L 189.792969 162.019531 L 0.855469 104.457031 Z M 41.226562 -28.058594 " fill-opacity="1" fill-rule="nonzero"/></g></g></g></g></g></g></g></g><g clip-path="url(#717aa73667)"><g clip-path="url(#7d56a8c1e8)"><g clip-path="url(#00af000f62)"><g transform="matrix(1, 0, 0, 1, 584, 29)"><g clip-path="url(#17a9c83315)"><g clip-path="url(#00e1e5ade1)"><g clip-path="url(#3809f20882)"><g clip-path="url(#7b16b9e43c)"><path fill="#ede6d8" d="M 41.160156 -28.058594 L 230.101562 29.5 L 189.730469 162.019531 L 0.789062 104.457031 Z M 41.160156 -28.058594 " fill-opacity="1" fill-rule="nonzero"/></g></g></g></g></g></g></g></g><g clip-path="url(#a501781814)"><g clip-path="url(#1d67fe2c49)"><g clip-path="url(#17a5fc59b9)"><g transform="matrix(1, 0, 0, 1, 685, 29)"><g clip-path="url(#9f3cd874a6)"><g clip-path="url(#8a58806095)"><g clip-path="url(#661e1e92d7)"><g clip-path="url(#c2b7b93415)"><path fill="#ede6d8" d="M 40.851562 -28.058594 L 229.789062 29.5 L 189.417969 162.019531 L 0.480469 104.457031 Z M 40.851562 -28.058594 " fill-opacity="1" fill-rule="nonzero"/></g></g></g></g></g></g></g></g><g clip-path="url(#522bcbb4b5)"><g clip-path="url(#9b791dff78)"><g clip-path="url(#4984ce9ae5)"><g transform="matrix(1, 0, 0, 1, 311, 29)"><g clip-path="url(#6e41b61176)"><g clip-path="url(#61d6c9efbe)"><g clip-path="url(#67b3e7bf8d)"><g clip-path="url(#8dda64bb8c)"><path fill="#ede6d8" d="M 40.503906 -28.058594 L 229.445312 29.5 L 189.074219 162.019531 L 0.132812 104.457031 Z M 40.503906 -28.058594 " fill-opacity="1" fill-rule="nonzero"/></g></g></g></g></g></g></g></g><g clip-path="url(#0e93bb1e5c)"><g clip-path="url(#1867d7446e)"><g clip-path="url(#90f0bdc2a2)"><g transform="matrix(1, 0, 0, 1, 502, 29)"><g clip-path="url(#8acd9cb08e)"><g clip-path="url(#a5eb35ea06)"><g clip-path="url(#5e62b2e6d1)"><g clip-path="url(#cf288d049d)"><path fill="#ede6d8" d="M 40.75 -28.058594 L 229.691406 29.5 L 189.320312 162.019531 L 0.382812 104.457031 Z M 40.75 -28.058594 " fill-opacity="1" fill-rule="nonzero"/></g></g></g></g></g></g></g></g><g clip-path="url(#a1bdd7e92b)"><g clip-path="url(#46624eacfe)"><g clip-path="url(#e7b3fdcc1e)"><g transform="matrix(1, 0, 0, 1, 216, 29)"><g clip-path="url(#657088a0c2)"><g clip-path="url(#cff3a366a0)"><g clip-path="url(#34863d9230)"><g clip-path="url(#72ca4b076e)"><path fill="#ede6d8" d="M 40.945312 -28.058594 L 229.886719 29.5 L 189.515625 162.019531 L 0.574219 104.457031 Z M 40.945312 -28.058594 " fill-opacity="1" fill-rule="nonzero"/></g></g></g></g></g></g></g></g><g clip-path="url(#5076cf5393)"><g clip-path="url(#edf568fadf)"><g clip-path="url(#b0c1ad9fb2)"><g transform="matrix(1, 0, 0, 1, 410, 29)"><g clip-path="url(#3b7cad3a07)"><g clip-path="url(#1b86038c10)"><g clip-path="url(#028766e458)"><g clip-path="url(#f1ab886e69)"><path fill="#ede6d8" d="M 40.613281 -28.058594 L 229.550781 29.5 L 189.183594 162.019531 L 0.242188 104.457031 Z M 40.613281 -28.058594 " fill-opacity="1" fill-rule="nonzero"/></g></g></g></g></g></g></g></g></g></g></g></g></g></g><g mask="url(#0db455303a)"><g transform="matrix(1, 0, 0, 1, 0, 264)"><g clip-path="url(#6f925f3fe4)"><g clip-path="url(#7bf8d00ef7)"><g><g clip-path="url(#a68490b60a)"><g clip-path="url(#ccf8e16ca5)"><g clip-path="url(#230f49e48a)"><g clip-path="url(#5d0592f6e5)"><g transform="matrix(1, 0, 0, 1, 78, 29)"><g clip-path="url(#a2080fefb7)"><g clip-path="url(#8f35436406)"><g clip-path="url(#e8745f6223)"><g clip-path="url(#8f1adccb8a)"><path fill="#ede6d8" d="M 40.949219 -28.058594 L 229.886719 29.5 L 189.519531 162.019531 L 0.578125 104.457031 Z M 40.949219 -28.058594 " fill-opacity="1" fill-rule="nonzero"/></g></g></g></g></g></g></g></g><g clip-path="url(#9240b538cd)"><g clip-path="url(#809c9d0daa)"><g clip-path="url(#1e2f316652)"><g transform="matrix(1, 0, 0, 1, 179, 29)"><g clip-path="url(#eaecb57d1a)"><g clip-path="url(#7eec4c60c7)"><g clip-path="url(#bf7ce2d8a8)"><g clip-path="url(#67202567dc)"><path fill="#ede6d8" d="M 40.636719 -28.058594 L 229.578125 29.5 L 189.207031 162.019531 L 0.269531 104.457031 Z M 40.636719 -28.058594 " fill-opacity="1" fill-rule="nonzero"/></g></g></g></g></g></g></g></g><g clip-path="url(#089c6f6ae3)"><g clip-path="url(#8e104f5513)"><g clip-path="url(#aff943f9ea)"><g transform="matrix(1, 0, 0, 1, 0, 29)"><g clip-path="url(#403e840c8a)"><g clip-path="url(#74d264a6bd)"><g clip-path="url(#a4f42c354a)"><g clip-path="url(#693cb4048b)"><path fill="#ede6d8" d="M 36.539062 -28.058594 L 225.480469 29.5 L 185.109375 162.019531 L -3.828125 104.457031 Z M 36.539062 -28.058594 " fill-opacity="1" fill-rule="nonzero"/></g></g></g></g></g></g></g></g><g clip-path="url(#23e42907ba)"><g clip-path="url(#3f0f0ba6cc)"><g clip-path="url(#f27e1b58cb)"><g transform="matrix(1, 0, 0, 1, 0, 29)"><g clip-path="url(#f0fa5fa1a2)"><g clip-path="url(#5ca5ef157c)"><g clip-path="url(#d0e72d6c3e)"><g clip-path="url(#01b0323bc2)"><path fill="#ede6d8" d="M -55.597656 -28.058594 L 133.339844 29.5 L 92.96875 162.019531 L -95.96875 104.457031 Z M -55.597656 -28.058594 " fill-opacity="1" fill-rule="nonzero"/></g></g></g></g></g></g></g></g></g></g></g></g></g></g><g mask="url(#adf789fb5b)"><g transform="matrix(1, 0, 0, 1, 1082, 264)"><g clip-path="url(#ee21054fa6)"><g clip-path="url(#2e8f57f356)"><g transform="matrix(1, 0, 0, 1, 0.000000000000227374, 0)"><g clip-path="url(#52d694b45d)"><g clip-path="url(#10f020a851)"><g clip-path="url(#bcfca9a3af)"><g clip-path="url(#1deae0025b)"><g transform="matrix(1, 0, 0, 1, 0.000000000000227374, 29)"><g clip-path="url(#aea61dfdfd)"><g clip-path="url(#d79c094365)"><g clip-path="url(#a5bf54122e)"><g clip-path="url(#6daefdb697)"><path fill="#ede6d8" d="M 40.839844 -28.058594 L 229.78125 29.5 L 189.410156 162.019531 L 0.472656 104.457031 Z M 40.839844 -28.058594 " fill-opacity="1" fill-rule="nonzero"/></g></g></g></g></g></g></g></g><g clip-path="url(#686b3f4b01)"><g clip-path="url(#da8afb5e86)"><g clip-path="url(#8af1b752f2)"><g transform="matrix(1, 0, 0, 1, 101, 29)"><g clip-path="url(#4365832151)"><g clip-path="url(#32af8a9ff2)"><g clip-path="url(#39d5268b6b)"><g clip-path="url(#ac92aacc5c)"><path fill="#ede6d8" d="M 40.53125 -28.058594 L 229.46875 29.5 L 189.101562 162.019531 L 0.160156 104.457031 Z M 40.53125 -28.058594 " fill-opacity="1" fill-rule="nonzero"/></g></g></g></g></g></g></g></g><g clip-path="url(#249bbd6f22)"><g clip-path="url(#136fe3b06a)"><g clip-path="url(#f69fc09d46)"><g transform="matrix(1, 0, 0, 1, 310, 29)"><g clip-path="url(#dbc839368d)"><g clip-path="url(#2e03d20fe6)"><g clip-path="url(#de4f372ee9)"><g clip-path="url(#43ff1a6b45)"><path fill="#ede6d8" d="M 40.808594 -28.058594 L 229.75 29.5 L 189.378906 162.019531 L 0.441406 104.457031 Z M 40.808594 -28.058594 " fill-opacity="1" fill-rule="nonzero"/></g></g></g></g></g></g></g></g><g clip-path="url(#69c7675800)"><g clip-path="url(#db69629926)"><g clip-path="url(#b944f66792)"><g transform="matrix(1, 0, 0, 1, 215, 29)"><g clip-path="url(#4852c332d2)"><g clip-path="url(#b0812bb66f)"><g clip-path="url(#57399adc3e)"><g clip-path="url(#c82425806b)"><path fill="#ede6d8" d="M 41.25 -28.058594 L 230.191406 29.5 L 189.820312 162.019531 L 0.878906 104.457031 Z M 41.25 -28.058594 " fill-opacity="1" fill-rule="nonzero"/></g></g></g></g></g></g></g></g></g></g></g></g></g></g><g mask="url(#55dbddce3b)"><g transform="matrix(1, 0, 0, 1, 282, 0)"><g clip-path="url(#020c439e2d)"><g clip-path="url(#a63cb783a5)"><g><g clip-path="url(#ecf4ad112f)"><g clip-path="url(#26fcd88d6a)"><g clip-path="url(#5134238b5f)"><g clip-path="url(#a634e06dc2)"><g transform="matrix(1, 0, 0, 1, 726, 0)"><g clip-path="url(#98ad3fa748)"><g clip-path="url(#ffcb45cb93)"><g clip-path="url(#a9f787bec6)"><g clip-path="url(#ea404de14f)"><path fill="#ede6d8" d="M 148.75 95.054688 L -40.191406 37.496094 L 0.179688 -95.019531 L 189.117188 -37.460938 Z M 148.75 95.054688 " fill-opacity="1" fill-rule="nonzero"/></g></g></g></g></g></g></g></g><g clip-path="url(#698faea14b)"><g clip-path="url(#3b5f36c921)"><g clip-path="url(#36311dd08f)"><g transform="matrix(1, 0, 0, 1, 625, 0)"><g clip-path="url(#63fff263b8)"><g clip-path="url(#867d00386c)"><g clip-path="url(#34ce062c02)"><g clip-path="url(#cacb683138)"><path fill="#ede6d8" d="M 149.058594 95.054688 L -39.878906 37.496094 L 0.488281 -95.019531 L 189.429688 -37.460938 Z M 149.058594 95.054688 " fill-opacity="1" fill-rule="nonzero"/></g></g></g></g></g></g></g></g><g clip-path="url(#3a56677976)"><g clip-path="url(#11cbc442ef)"><g clip-path="url(#09b1a41119)"><g transform="matrix(1, 0, 0, 1, 142, 0)"><g clip-path="url(#d752abda65)"><g clip-path="url(#a60da4cf77)"><g clip-path="url(#5c05959d96)"><g clip-path="url(#2ccbbf1915)"><path fill="#ede6d8" d="M 149.125 95.054688 L -39.816406 37.496094 L 0.554688 -95.019531 L 189.492188 -37.460938 Z M 149.125 95.054688 " fill-opacity="1" fill-rule="nonzero"/></g></g></g></g></g></g></g></g><g clip-path="url(#b068588d2e)"><g clip-path="url(#ec468bf691)"><g clip-path="url(#69b88c649e)"><g transform="matrix(1, 0, 0, 1, 41, 0)"><g clip-path="url(#aad3607ade)"><g clip-path="url(#94e15cd0f1)"><g clip-path="url(#d470efd911)"><g clip-path="url(#82fdefd801)"><path fill="#ede6d8" d="M 149.433594 95.054688 L -39.503906 37.496094 L 0.863281 -95.019531 L 189.804688 -37.460938 Z M 149.433594 95.054688 " fill-opacity="1" fill-rule="nonzero"/></g></g></g></g></g></g></g></g><g clip-path="url(#2828e633db)"><g clip-path="url(#efeb97ea65)"><g clip-path="url(#b2dfec48fe)"><g transform="matrix(1, 0, 0, 1, 416, 0)"><g clip-path="url(#af1ced7deb)"><g clip-path="url(#542e762582)"><g clip-path="url(#a88c0da437)"><g clip-path="url(#60462f7f4f)"><path fill="#ede6d8" d="M 148.777344 95.054688 L -40.160156 37.496094 L 0.210938 -95.019531 L 189.148438 -37.460938 Z M 148.777344 95.054688 " fill-opacity="1" fill-rule="nonzero"/></g></g></g></g></g></g></g></g><g clip-path="url(#b34d393912)"><g clip-path="url(#ae9b1f3aed)"><g clip-path="url(#e7447931f9)"><g transform="matrix(1, 0, 0, 1, 224, 0)"><g clip-path="url(#07c4e4bf47)"><g clip-path="url(#c732d7206a)"><g clip-path="url(#f040436e5e)"><g clip-path="url(#0c6024b9fd)"><path fill="#ede6d8" d="M 149.53125 95.054688 L -39.40625 37.496094 L 0.960938 -95.019531 L 189.902344 -37.460938 Z M 149.53125 95.054688 " fill-opacity="1" fill-rule="nonzero"/></g></g></g></g></g></g></g></g><g clip-path="url(#0b80e5e391)"><g clip-path="url(#98790da888)"><g clip-path="url(#70d0c08257)"><g transform="matrix(1, 0, 0, 1, 510, 0)"><g clip-path="url(#8ac5fcdb7a)"><g clip-path="url(#69d18d8557)"><g clip-path="url(#9872a8b472)"><g clip-path="url(#76eabc5fad)"><path fill="#ede6d8" d="M 149.339844 95.054688 L -39.601562 37.496094 L 0.769531 -95.019531 L 189.710938 -37.460938 Z M 149.339844 95.054688 " fill-opacity="1" fill-rule="nonzero"/></g></g></g></g></g></g></g></g><g clip-path="url(#a7ae0be336)"><g clip-path="url(#553d870daf)"><g clip-path="url(#4edffcb907)"><g transform="matrix(1, 0, 0, 1, 316, 0)"><g clip-path="url(#e098290323)"><g clip-path="url(#2c95cd2520)"><g clip-path="url(#5981328b41)"><g clip-path="url(#176f7ab07f)"><path fill="#ede6d8" d="M 149.671875 95.054688 L -39.269531 37.496094 L 1.101562 -95.019531 L 190.042969 -37.460938 Z M 149.671875 95.054688 " fill-opacity="1" fill-rule="nonzero"/></g></g></g></g></g></g></g></g></g></g></g></g></g></g><g mask="url(#652b243835)"><g><g clip-path="url(#598a9185be)"><g clip-path="url(#87c1d64004)"><g><g clip-path="url(#07f6f1953d)"><g clip-path="url(#58e96a9042)"><g clip-path="url(#23f666148c)"><g clip-path="url(#cef4d4f8a8)"><g transform="matrix(1, 0, 0, 1, 206, 0)"><g clip-path="url(#6b1c6ff8ad)"><g clip-path="url(#cd1b51eb36)"><g clip-path="url(#7db63cfa74)"><g clip-path="url(#989f810a91)"><path fill="#ede6d8" d="M 149.621094 95.054688 L -39.316406 37.496094 L 1.050781 -95.019531 L 189.992188 -37.460938 Z M 149.621094 95.054688 " fill-opacity="1" fill-rule="nonzero"/></g></g></g></g></g></g></g></g><g clip-path="url(#9e0abb6c91)"><g clip-path="url(#9221eecdf9)"><g clip-path="url(#e76090f53a)"><g transform="matrix(1, 0, 0, 1, 106, 0)"><g clip-path="url(#53eac0f881)"><g clip-path="url(#2b29ae22b2)"><g clip-path="url(#d7cf771088)"><g clip-path="url(#91d2de60ff)"><path fill="#ede6d8" d="M 148.933594 95.054688 L -40.007812 37.496094 L 0.363281 -95.019531 L 189.300781 -37.460938 Z M 148.933594 95.054688 " fill-opacity="1" fill-rule="nonzero"/></g></g></g></g></g></g></g></g><g clip-path="url(#7b6364c9df)"><g clip-path="url(#c2b08d27bb)"><g clip-path="url(#2768b12729)"><g><g clip-path="url(#203d7784b3)"><g clip-path="url(#48334c9be2)"><g clip-path="url(#7499b79695)"><g clip-path="url(#1d52767acf)"><path fill="#ede6d8" d="M 45.652344 95.054688 L -143.289062 37.496094 L -102.917969 -95.019531 L 86.023438 -37.460938 Z M 45.652344 95.054688 " fill-opacity="1" fill-rule="nonzero"/></g></g></g></g></g></g></g></g><g clip-path="url(#614e38a0be)"><g clip-path="url(#d3d2d3fde2)"><g clip-path="url(#8aac97064b)"><g><g clip-path="url(#71b311c19e)"><g clip-path="url(#451c228258)"><g clip-path="url(#6b7a69abd5)"><g clip-path="url(#f359495a92)"><path fill="#ede6d8" d="M 140.210938 95.054688 L -48.726562 37.496094 L -8.355469 -95.019531 L 180.582031 -37.460938 Z M 140.210938 95.054688 " fill-opacity="1" fill-rule="nonzero"/></g></g></g></g></g></g></g></g></g></g></g></g></g></g><g mask="url(#eb5692a9fc)"><g transform="matrix(1, 0, 0, 1, 1081, 0)"><g clip-path="url(#4545b0208f)"><g clip-path="url(#c96821f932)"><g><g clip-path="url(#40e1edbe80)"><g clip-path="url(#e091590827)"><g clip-path="url(#9042247219)"><g clip-path="url(#3e6c9bb5da)"><g transform="matrix(1, 0, 0, 1, 142, 0)"><g clip-path="url(#d320c581ee)"><g clip-path="url(#2a97a3ab95)"><g clip-path="url(#e695dcdcb0)"><g clip-path="url(#def7a63b04)"><path fill="#ede6d8" d="M 149.222656 95.054688 L -39.71875 37.496094 L 0.652344 -95.019531 L 189.59375 -37.460938 Z M 149.222656 95.054688 " fill-opacity="1" fill-rule="nonzero"/></g></g></g></g></g></g></g></g><g clip-path="url(#8ea5c80eaf)"><g clip-path="url(#47d65ae704)"><g clip-path="url(#9624d3865d)"><g transform="matrix(1, 0, 0, 1, 41, 0)"><g clip-path="url(#50c52e8fc5)"><g clip-path="url(#efec2e12eb)"><g clip-path="url(#612bfaff8d)"><g clip-path="url(#5e7e958dfc)"><path fill="#ede6d8" d="M 149.53125 95.054688 L -39.40625 37.496094 L 0.964844 -95.019531 L 189.902344 -37.460938 Z M 149.53125 95.054688 " fill-opacity="1" fill-rule="nonzero"/></g></g></g></g></g></g></g></g><g clip-path="url(#3d3d21dba5)"><g clip-path="url(#4f3fbdc238)"><g clip-path="url(#5ef53591de)"><g transform="matrix(1, 0, 0, 1, 224, 0)"><g clip-path="url(#69ddc4bbde)"><g clip-path="url(#63e46cc58c)"><g clip-path="url(#c067421cb6)"><g clip-path="url(#30ce02309b)"><path fill="#ede6d8" d="M 149.628906 95.054688 L -39.308594 37.496094 L 1.0625 -95.019531 L 190 -37.460938 Z M 149.628906 95.054688 " fill-opacity="1" fill-rule="nonzero"/></g></g></g></g></g></g></g></g><g clip-path="url(#f67cb9a907)"><g clip-path="url(#5c6b8f2c82)"><g clip-path="url(#a9d79e8359)"><g transform="matrix(1, 0, 0, 1, 317, 0)"><g clip-path="url(#495775ee7f)"><g clip-path="url(#8b6da2361a)"><g clip-path="url(#5a521e3db2)"><g clip-path="url(#9ead0f613a)"><path fill="#ede6d8" d="M 148.769531 95.054688 L -40.167969 37.496094 L 0.199219 -95.019531 L 189.140625 -37.460938 Z M 148.769531 95.054688 " fill-opacity="1" fill-rule="nonzero"/></g></g></g></g></g></g></g></g></g></g></g></g></g></g></svg>